<svg class="icon" viewBox="0 0 1024 1024" xmlns="http://www.w3.org/2000/svg" width="64" height="64"><defs><style/></defs><path d="M314.082 955.718H194.936A125.075 125.075 0 0 1 70 830.906v-637.83A125.023 125.023 0 0 1 194.988 68.282h632.445a125.04 125.04 0 0 1 124.97 124.794v33.712a34.15 34.15 0 0 0 68.3 0v-33.712C1020.65 86.628 934.002 0 827.45 0H194.936C88.347 0 1.596 86.628 1.596 193.076v637.83c0 106.43 86.751 193.094 193.34 193.094h119.146a34.14 34.14 0 1 0 0-68.282zM180.676 318.117h-.597a34.115 34.115 0 1 0 0 68.229h.597a34.115 34.115 0 1 0 0-68.23zm114.639 0a34.115 34.115 0 1 0 0 68.229h192.568a34.115 34.115 0 1 0 0-68.23zm-114.64 178.132h-.596a34.132 34.132 0 1 0 0 68.247h.597a34.132 34.132 0 1 0 0-68.247zm204.355 0h-89.715a34.132 34.132 0 1 0 0 68.247h89.698a34.132 34.132 0 1 0 0-68.247zm554.411 218.37a282.897 282.897 0 0 0-81.226-56.724 187.867 187.867 0 0 0 70.018-146.316c0-103.87-84.576-188.393-188.656-188.393s-188.64 84.488-188.64 188.393a187.955 187.955 0 0 0 70.002 146.333 282.844 282.844 0 0 0-163.996 256.342 34.202 34.202 0 0 0 68.405 0c0-118.024 96.152-213.983 214.352-213.983S954 796.3 954 914.254a34.202 34.202 0 0 0 68.404 0 280.775 280.775 0 0 0-82.963-199.636zM739.49 631.69a120.13 120.13 0 1 1 120.322-120.13A120.357 120.357 0 0 1 739.49 631.69zm0 0" fill="currentColor"/></svg>