<svg class="icon" viewBox="0 0 1026 1024" xmlns="http://www.w3.org/2000/svg" width="64.125" height="64"><defs><style/></defs><path d="M513.259 991.977C248.176 991.977 33.282 777.083 33.282 512S248.176 32.023 513.259 32.023 993.236 246.917 993.236 512 778.34 991.977 513.259 991.977zm0-918.217c-242.034 0-438.24 196.207-438.24 438.24 0 116.93 46.084 222.895 120.719 301.476-6.724-22.292-11.227-71.073 67.099-92.79l166.949-62.606v-41.737s-54.44-18.87-83.474-104.343L325.44 324.182s29.101-125.211 187.817-125.211c154.844 0 183.236 125.211 183.236 125.211L676.135 512c-28.325 85.473-80.93 104.343-80.93 104.343l-.51 41.737 162.877 62.605c100.69 28.618 61.078 104.343 61.078 104.343s-.177.618-.378 1.277c82.055-79.642 133.225-190.922 133.225-314.306C951.498 269.967 755.292 73.76 513.26 73.76z"/></svg>