<svg class="icon" viewBox="0 0 1024 1024" xmlns="http://www.w3.org/2000/svg" width="64" height="64"><defs><style/></defs><path d="M358.063 777.125c0 3.75-4.313 6.75-9.75 6.75-6.188.563-10.5-2.438-10.5-6.75 0-3.75 4.312-6.75 9.75-6.75 5.625-.563 10.5 2.438 10.5 6.75zm-58.313-8.438c-1.313 3.75 2.438 8.063 8.063 9.188 4.875 1.875 10.5 0 11.625-3.75s-2.438-8.063-8.063-9.75c-4.875-1.313-10.313.563-11.625 4.313zm82.875-3.187c-5.438 1.313-9.188 4.875-8.625 9.188.563 3.75 5.438 6.187 11.063 4.875 5.437-1.313 9.187-4.875 8.625-8.625-.563-3.563-5.625-6-11.063-5.438zM506 47C245.937 47 47 244.438 47 504.5 47 712.438 177.875 890.375 364.813 953c24 4.313 32.437-10.5 32.437-22.688 0-11.625-.563-75.75-.563-115.125 0 0-131.25 28.125-158.812-55.875 0 0-21.375-54.562-52.125-68.625 0 0-42.938-29.437 3-28.875 0 0 46.688 3.75 72.375 48.375C302.188 782.563 371 761.75 397.813 749.375c4.312-30 16.5-50.813 30-63.188C323 674.563 217.25 659.375 217.25 479c0-51.563 14.25-77.438 44.25-110.438-4.875-12.187-20.813-62.437 4.875-127.312 39.188-12.188 129.375 50.625 129.375 50.625 37.5-10.5 77.813-15.938 117.75-15.938s80.25 5.438 117.75 15.938c0 0 90.188-63 129.375-50.625 25.688 65.063 9.75 115.125 4.875 127.313 30 33.187 48.375 59.062 48.375 110.437 0 180.938-110.438 195.375-215.25 207.188 17.25 14.812 31.875 42.937 31.875 87 0 63.187-.563 141.375-.563 156.75 0 12.187 8.625 27 32.438 22.687C849.875 890.375 977 712.437 977 504.5 977 244.437 766.062 47 506 47zM229.25 693.688c-2.438 1.875-1.875 6.187 1.313 9.75 3 3 7.312 4.312 9.75 1.875 2.437-1.875 1.875-6.188-1.313-9.75-3-3-7.313-4.313-9.75-1.875zM209 678.5c-1.313 2.438.563 5.438 4.313 7.313 3 1.875 6.75 1.312 8.062-1.313 1.313-2.438-.563-5.438-4.313-7.313-3.75-1.125-6.75-.562-8.062 1.313zm60.75 66.75c-3 2.438-1.875 8.063 2.438 11.625 4.312 4.313 9.75 4.875 12.187 1.875 2.438-2.438 1.313-8.063-2.438-11.625-4.125-4.313-9.75-4.875-12.187-1.875zm-21.375-27.563c-3 1.875-3 6.75 0 11.063 3 4.313 8.063 6.188 10.5 4.313 3-2.438 3-7.313 0-11.625-2.625-4.313-7.5-6.188-10.5-3.75z" fill="#8a8a8a"/></svg>