<svg viewBox="0 0 1024 1024" xmlns="http://www.w3.org/2000/svg" width="64" height="64"><defs><style/></defs><path d="M212 922.667h-32a96 96 0 0 1-96-96v-384a96 96 0 0 1 96-96h32a96 96 0 0 1 96 96v384a96 96 0 0 1-96 96zm-32-512a32 32 0 0 0-32 32v384a32 32 0 0 0 32 32h32a32 32 0 0 0 32-32v-384a32 32 0 0 0-32-32h-32z"/><path d="M276 410.667h-64a32 32 0 0 1 0-64h64a192 192 0 0 0 192-192 32 32 0 1 1 64 0 256 256 0 0 1-256 256zm560 0H579.52a48 48 0 0 1-39.52-75.12 318.24 318.24 0 0 0 56-180.88 32 32 0 0 1 64 0 382 382 0 0 1-51.36 192H836a32 32 0 0 1 0 64z"/><path d="M628 186.667a32 32 0 0 1-32-32 32 32 0 0 0-64 0 32 32 0 1 1-64 0 96 96 0 0 1 192 0 32 32 0 0 1-32 32zm64 736H500a32 32 0 0 1 0-64h192a32 32 0 0 0 0-64 32 32 0 1 1 0-64h48a32 32 0 0 0 0-64 32 32 0 1 1 0-64h48a32 32 0 0 0 0-64 32 32 0 1 1 0-64h56a32 32 0 0 0 0-64 32 32 0 0 1 0-64 96 96 0 0 1 32 186.4 96 96 0 0 1-49.2 125.28 96 96 0 0 1-48 128 96 96 0 0 1-86.8 136.32zm-304-64a32 32 0 1 0 32 32 32 32 0 0 0-32-32z"/></svg>