<svg viewBox="0 0 1024 1024" xmlns="http://www.w3.org/2000/svg" width="64" height="64"><defs><style/></defs><path d="M885.514 207.858h-747.03c-41.378 0-75.053 33.675-75.053 75.135v458.074c0 41.485 33.675 75.075 75.053 75.075h747.03c41.55 0 75.054-33.59 75.054-75.075V282.993c-.001-41.46-33.504-75.135-75.054-75.135zm-17.96 53.8L569.653 525.8c-26 23.193-45.256 34.715-57.654 34.715-12.395 0-31.652-11.522-57.653-34.715L156.444 261.657h711.11zm-748.296 462.68V310.46l232.658 204.068-232.658 209.81zm39.125 38.006l233.532-207.39 38.257 33.59c22.233 19.422 49.616 29.4 81.826 29.4 32.38 0 59.592-9.978 81.911-29.4l38.254-33.59 233.54 207.39h-707.32zm746.388-38.007l-232.66-209.81 232.66-204.067v413.877zm0 0" fill="#8a8a8a"/></svg>