<svg class="icon" viewBox="0 0 1024 1024" xmlns="http://www.w3.org/2000/svg" width="64" height="64"><defs><style/></defs><path d="M949.556 382.975v158.128l33.287 33.296-69.41 72.231-70.265-70.102 48.117-43.747V407.938C687.12 492.12 621.668 518.285 576.391 538.71c-45.28 20.428-77.885 20.325-122.793 3.402-44.91-16.923-258.696-94.945-364.85-145.75-70.833-33.896-75.394-55.39 1.22-84.155 99.984-37.986 265.238-98.815 352.843-132.016 51.852-20.978 79.27-32.429 126.866-8.507 84.992 35.091 279.187 107.964 375.75 147.833 84.061 36.689 27.55 48.754 4.13 63.458zm-363.32 218.328c49.373-20.37 115.946-54.056 188.536-85.155V765.83s-93.88 99.87-258.915 99.87c-177.733 0-273.734-99.87-273.734-99.87V532.78c56.021 22.826 118.94 42.466 195.073 68.522 46.925 16.698 106.47 22.47 149.04 0z"/></svg>