<svg viewBox="0 0 1024 1024" xmlns="http://www.w3.org/2000/svg" width="64" height="64"><defs><style/></defs><path d="M512 127.84C229.406 127.84.021 408.359.021 512 .021 615.432 229.406 894.482 512 894.482c282.6 0 511.391-276.361 511.391-382.482 0-111.71-228.792-384.16-511.391-384.16zm0 703.709C267.368 831.549 71.838 572.005 63.982 512 71.768 456.534 267.225 191.943 512 191.943c247.989 0 442.43 262.322 447.43 320.057-6.999 57.147-200.227 319.549-447.43 319.549z" fill="#8a8a8a"/><path d="M512.001 319.644c-105.913 0-191.772 85.858-191.772 191.772s85.859 191.772 191.772 191.772c105.91 0 191.772-85.858 191.772-191.771S617.91 319.644 512 319.644zm.015 320.023c-70.479 0-128.231-57.792-128.231-128.27s57.752-127.573 128.231-127.573 127.612 57.094 127.612 127.572-57.132 128.27-127.612 128.27z" fill="#8a8a8a"/></svg>