<svg class="icon" viewBox="0 0 1024 1024" xmlns="http://www.w3.org/2000/svg" width="64" height="64"><defs><style/></defs><path d="M65.442 126.965c-34.92 43.4-112.159 250.238 219.04 588.876C633.318 1072.8 858.277 996.44 896.877 956.281l-233.239-232.8c-32.72 32.52-74.6 3.48-155.119-61.96-53.24-43.439-114.56-101.679-167.76-167.558-37.319-46.04-70.239-94.48-36.199-128.52L65.442 126.965zM981.277 872.96c15.04-15.04 13.52-38.2-.2-51.92v-.24S799.118 639.483 798.918 639.483c-14.4-14.4-37.32-13.96-51.72.2l-65.879 65.88L915.198 939.04c0-.2 65.88-65.88 66.08-66.08zM388.76 281.444c15.04-15.04 13.76-38.2 0-51.92v-.24S201.563 42.725 201.363 42.725c-14.4-14.4-37.52-14.2-51.72 0l-65.88 66.12 238.879 238.718c0-.24 66.12-65.92 66.12-66.12zm0 0"/></svg>