<svg class="icon" viewBox="0 0 1097 1024" xmlns="http://www.w3.org/2000/svg" width="68.563" height="64"><defs><style/></defs><path d="M544.143 62l482.143 192.857v64.286H962q0 13.058-10.296 22.6t-24.358 9.543H160.94q-14.063 0-24.359-9.543t-10.295-22.6H62v-64.286zM190.57 383.429h128.572v385.714h64.286V383.429H512v385.714h64.286V383.429h128.571v385.714h64.286V383.429h128.571v385.714h29.632q14.062 0 24.358 9.542t10.296 22.6v32.144H126.286v-32.143q0-13.058 10.295-22.6t24.359-9.543h29.631V383.429zm801.06 482.142q14.063 0 24.359 9.543t10.296 22.6V962H62v-64.286q0-13.058 10.296-22.6t24.358-9.543h894.978z"/></svg>