<svg class="icon" viewBox="0 0 1024 1024" xmlns="http://www.w3.org/2000/svg" width="64" height="64"><defs><style/></defs><path d="M512 978.034C254.62 978.034 45.966 769.38 45.966 512S254.62 45.966 512 45.966 978.034 254.62 978.034 512 769.38 978.034 512 978.034zm0-77.673c214.48 0 388.361-173.882 388.361-388.361S726.48 123.639 512 123.639 123.639 297.52 123.639 512 297.52 900.361 512 900.361z"/><path d="M512 693.235c-257.38 0-466.034-81.141-466.034-181.235S254.62 330.765 512 330.765 978.034 411.906 978.034 512 769.38 693.235 512 693.235zm0-77.672c214.48 0 388.361-46.37 388.361-103.563S726.48 408.437 512 408.437 123.639 454.807 123.639 512 297.52 615.563 512 615.563z"/><path d="M330.765 512c0-257.38 81.141-466.034 181.235-466.034S693.235 254.62 693.235 512 612.094 978.034 512 978.034 330.765 769.38 330.765 512zm77.672 0c0 214.48 46.37 388.361 103.563 388.361S615.563 726.48 615.563 512 569.193 123.639 512 123.639 408.437 297.52 408.437 512z"/></svg>